<?xml version="1.0" encoding="utf-8"?>
<svg width="122.5" height="156" viewBox="0 0 122.5 156" fill="none" stroke="none" version="1.1" xmlns:xlink="http://www.w3.org/1999/xlink" xmlns="http://www.w3.org/2000/svg">
  <g id="MVURG" opacity="1" transform="translate(1 1)">
    <path d="M120.5 0L120.5 0L120.5 154L0 154L0 0L120.5 0Z" style="mix-blend-mode:normal;" />
    <path id="Path" d="M0 100.171L15 100L15 38.8286L45.0652 0L45.0652 55L35 50L35.0652 28.9092L25 42.5L25 110L0 110L0 100.171Z" style="fill:#FFFFFF;fill-rule:evenodd;fill-opacity:0;stroke-width:2;stroke:#000000;mix-blend-mode:normal;" transform="translate(0 44)" />
    <path id="Path" d="M0 4.96826L10 0L9.88062 27.5L20 27.5L20 0.203369L30 5L30 35L0 35L0 4.96826Z" style="fill:#FFFFFF;fill-rule:evenodd;fill-opacity:0;stroke-width:2;stroke:#000000;mix-blend-mode:normal;" transform="translate(35 119)" />
    <path id="Path" d="M0 99.0173L0 0L30 28.5L30 80L50 80L50 144L65.5 144L65.5 154L40 154L40 90L20 90L20 30.8826L10 21.519L10 94L0 99.0173Z" style="fill:#FFFFFF;fill-rule:evenodd;fill-opacity:0;stroke-width:2;stroke:#000000;mix-blend-mode:normal;" transform="translate(55 0)" />
  </g>
</svg>